<svg width="1372" height="327" viewBox="0 0 1372 327" fill="none" xmlns="http://www.w3.org/2000/svg">
<mask id="path-1-outside-1_1954_2326" maskUnits="userSpaceOnUse" x="-2.32422" y="-1.97998" width="1377" height="332" fill="black">
<rect fill="white" x="-2.32422" y="-1.97998" width="1377" height="332"/>
<path d="M134.066 135.739C151.683 134.984 170.432 133.852 190.314 132.342V85.153C190.314 59.4823 193.838 39.4744 200.885 25.129C208.938 8.77026 225.549 0.590899 250.716 0.590899C267.075 0.590899 279.532 5.37268 288.089 14.9362C296.898 24.2481 301.302 36.3284 301.302 51.1771C301.302 82.3846 289.977 105.161 267.326 119.506V262.582H291.487V268.622H166.154V262.582H190.314V139.892C177.479 140.898 168.167 141.528 162.379 141.779L134.066 142.912V195.008C134.066 220.93 128.655 240.938 117.833 255.032C107.262 268.874 88.7644 275.795 62.3388 275.795C42.4566 275.795 27.1046 269.881 16.2827 258.052C5.46072 246.224 0.0497578 230.872 0.0497578 211.996C0.0497578 193.121 4.95738 178.398 14.7726 167.827C24.5879 157.006 38.6815 149.204 57.0536 144.422V13.8037H29.118V7.76357H158.226V13.8037H134.066V135.739ZM43.0858 263.337C52.3977 263.337 57.0536 256.165 57.0536 241.819V151.972C24.0845 161.032 7.59994 180.789 7.59994 211.241C7.59994 225.838 10.8717 238.17 17.4152 248.237C24.2103 258.304 32.7672 263.337 43.0858 263.337ZM267.326 37.2093V109.691C284.943 96.6041 293.752 76.8478 293.752 50.4221C293.752 40.8586 291.864 32.9309 288.089 26.639C284.566 20.3472 280.791 17.2013 276.764 17.2013C272.737 17.2013 270.095 18.4597 268.836 20.9764C267.83 23.4931 267.326 28.9041 267.326 37.2093ZM427.414 0.590899C447.044 0.590899 464.536 4.86933 479.888 13.4262C495.491 21.7314 503.293 34.8184 503.293 52.6872C503.293 63.7608 499.77 72.5693 492.723 79.1128C485.928 85.4046 477.748 88.5505 468.185 88.5505C458.873 88.5505 451.071 85.7821 444.779 80.2453C438.487 74.7085 435.341 67.5359 435.341 58.7273C435.341 49.9188 437.984 42.7461 443.269 37.2093C448.554 31.6725 455.098 28.9041 462.9 28.9041C470.701 28.9041 476.993 31.1691 481.775 35.6993C486.557 39.9777 488.948 44.382 488.948 48.9121C488.948 53.6939 488.193 57.3431 486.683 59.8598C485.173 62.3766 484.418 64.2641 484.418 65.5225C484.418 67.7875 485.55 68.9201 487.815 68.9201C490.08 68.9201 491.968 67.2842 493.478 64.0125C495.24 60.7407 496.12 56.8398 496.12 52.3097C496.12 41.7394 491.968 32.5534 483.663 24.7515C475.609 16.9496 464.787 13.0487 451.197 13.0487C437.858 13.0487 426.155 18.208 416.088 28.5266C406.273 38.8452 401.366 51.4288 401.366 66.2775C401.366 81.1262 405.392 93.7098 413.446 104.028C421.499 114.347 432.321 119.506 445.912 119.506C449.687 119.506 457.74 116.738 470.072 111.201L473.092 117.619C447.925 129.951 430.686 142.031 421.374 153.86C412.313 165.437 407.783 180.159 407.783 198.028C407.783 215.645 411.181 230.62 417.976 242.952C425.023 255.032 436.726 261.072 453.084 261.072C469.695 261.072 483.033 256.165 493.1 246.349C503.167 236.534 508.201 224.706 508.201 210.864C508.201 203.817 506.565 200.293 503.293 200.293C500.776 200.293 499.518 201.426 499.518 203.691C499.518 204.194 499.77 205.075 500.273 206.333C500.776 207.592 501.028 209.605 501.028 212.374C501.028 219.169 498.511 224.454 493.478 228.229C488.444 231.752 482.404 233.514 475.357 233.514C468.311 233.514 462.019 230.746 456.482 225.209C451.197 219.672 448.554 212.499 448.554 203.691C448.554 194.882 451.449 187.584 457.237 181.795C463.277 175.755 471.205 172.735 481.02 172.735C490.835 172.735 499.015 176.259 505.558 183.305C512.102 190.101 515.373 199.035 515.373 210.109C515.373 229.236 507.068 244.965 490.458 257.297C474.099 269.629 450.316 275.795 419.109 275.795C387.901 275.795 364.244 268.371 348.137 253.522C332.281 238.673 324.354 221.56 324.354 202.181C324.354 182.802 331.401 166.695 345.494 153.86C359.588 141.024 379.848 132.719 406.273 128.944L405.141 125.546C381.483 124.791 363.489 118.751 351.157 107.426C338.825 95.8491 332.659 82.5104 332.659 67.41C332.659 47.7796 341.593 31.7983 359.462 19.4664C377.583 6.88272 400.233 0.590899 427.414 0.590899ZM625.288 13.8037V264.847C627.804 265.099 637.368 266.609 653.978 269.377C670.589 272.146 685.563 273.53 698.902 273.53C712.241 273.53 723.44 269.755 732.5 262.205C741.812 254.655 746.468 244.084 746.468 230.494C746.468 222.944 744.455 216.023 740.428 209.731C733.884 199.664 725.705 194.631 715.89 194.631C713.625 194.631 712.492 195.889 712.492 198.406C712.492 200.671 714.254 201.929 717.777 202.181C721.301 202.181 725.579 204.446 730.613 208.976C735.898 213.506 738.54 220.553 738.54 230.116C738.54 239.428 735.017 247.104 727.97 253.145C721.175 258.933 712.996 261.827 703.432 261.827C693.868 261.827 685.689 258.304 678.894 251.257C672.35 243.959 669.079 235.15 669.079 224.831C669.079 214.261 673.105 205.327 681.159 198.028C689.212 190.478 699.405 186.703 711.737 186.703C724.321 186.703 734.388 190.981 741.938 199.538C749.74 208.095 753.641 218.917 753.641 232.004C753.641 244.839 748.859 256.165 739.295 265.98C729.732 275.795 715.135 280.703 695.504 280.703C683.172 280.703 665.429 278.689 642.275 274.663C619.373 270.636 595.213 268.622 569.794 268.622H524.115V262.582H548.276V13.8037H524.115V7.76357H656.998V13.8037H625.288ZM860.493 13.8037V264.847C863.01 265.099 872.574 266.609 889.184 269.377C905.795 272.146 920.769 273.53 934.108 273.53C947.446 273.53 958.646 269.755 967.706 262.205C977.018 254.655 981.674 244.084 981.674 230.494C981.674 222.944 979.661 216.023 975.634 209.731C969.09 199.664 960.911 194.631 951.096 194.631C948.831 194.631 947.698 195.889 947.698 198.406C947.698 200.671 949.46 201.929 952.983 202.181C956.507 202.181 960.785 204.446 965.819 208.976C971.104 213.506 973.746 220.553 973.746 230.116C973.746 239.428 970.223 247.104 963.176 253.145C956.381 258.933 948.201 261.827 938.638 261.827C929.074 261.827 920.895 258.304 914.1 251.257C907.556 243.959 904.285 235.15 904.285 224.831C904.285 214.261 908.311 205.327 916.365 198.028C924.418 190.478 934.611 186.703 946.943 186.703C959.527 186.703 969.594 190.981 977.144 199.538C984.946 208.095 988.847 218.917 988.847 232.004C988.847 244.839 984.065 256.165 974.501 265.98C964.938 275.795 950.341 280.703 930.71 280.703C918.378 280.703 900.635 278.689 877.481 274.663C854.579 270.636 830.419 268.622 805 268.622H759.321V262.582H783.482V13.8037H759.321V7.76357H892.204V13.8037H860.493ZM1185.55 110.824C1197.12 110.824 1207.69 107.048 1217.26 99.4983C1226.82 91.9481 1233.36 79.742 1236.89 62.8799C1248.72 85.0271 1254.63 109.817 1254.63 137.249C1254.63 165.94 1248.09 191.736 1235 214.639C1220.65 240.058 1200.02 257.675 1173.09 267.49C1158.49 273.027 1142.51 275.795 1125.15 275.795C1107.78 275.795 1091.8 273.153 1077.2 267.867C1062.6 262.331 1050.27 255.158 1040.21 246.349C1030.39 237.289 1022.09 226.719 1015.29 214.639C1002.2 191.736 995.659 165.94 995.659 137.249C995.659 96.4782 1008.24 63.5091 1033.41 38.3418C1058.58 13.1745 1095.2 0.590899 1143.27 0.590899C1165.66 0.590899 1184.67 5.87603 1200.27 16.4463C1216.12 26.7649 1224.05 40.2294 1224.05 56.8398C1224.05 67.41 1220.28 76.7219 1212.73 84.7755C1205.18 92.829 1195.99 96.8558 1185.17 96.8558C1174.35 96.8558 1165.29 93.4582 1157.99 86.663C1150.69 79.6162 1147.04 71.311 1147.04 61.7474C1147.04 51.9322 1149.93 43.627 1155.72 36.8318C1161.76 30.0366 1169.69 26.639 1179.51 26.639C1189.57 26.639 1197.5 31.0433 1203.29 39.8519C1204.55 42.1169 1206.06 43.2495 1207.82 43.2495C1210.34 43.2495 1211.59 42.2428 1211.59 40.2294C1211.59 38.216 1210.59 35.9509 1208.57 33.4342C1204.04 26.8907 1196.62 21.2281 1186.3 16.4463C1175.98 11.4128 1163.02 8.89611 1147.42 8.89611C1131.81 8.89611 1119.1 12.2937 1109.29 19.0889C1089.41 32.6792 1079.47 72.066 1079.47 137.249C1079.47 202.181 1086.26 242.323 1099.85 257.675C1106.14 264.973 1114.57 268.622 1125.15 268.622C1135.72 268.622 1144.15 264.973 1150.44 257.675C1164.03 242.323 1170.82 202.181 1170.82 137.249C1170.82 123.407 1170.7 113.844 1170.45 108.559C1176.49 110.069 1181.52 110.824 1185.55 110.824ZM1364.9 254.655C1364.9 237.289 1358.1 224.454 1344.51 216.149C1340.49 213.884 1337.34 212.751 1335.08 212.751C1333.06 212.751 1332.06 213.758 1332.06 215.771C1332.06 217.785 1333.44 219.295 1336.21 220.301C1346.78 224.831 1352.06 233.262 1352.06 245.594C1352.06 254.655 1348.79 261.953 1342.25 267.49C1335.96 273.027 1328.03 275.795 1318.47 275.795C1309.15 275.795 1301.23 272.523 1294.68 265.98C1288.39 259.185 1285.24 250.754 1285.24 240.687C1285.24 230.62 1288.77 222.063 1295.81 215.016C1303.11 207.718 1312.68 204.068 1324.51 204.068C1336.33 204.068 1347.16 208.473 1356.97 217.281C1366.79 225.838 1371.69 238.422 1371.69 255.032C1371.69 286.24 1354.45 310.023 1319.98 326.381L1316.96 320.341C1348.92 305.241 1364.9 283.345 1364.9 254.655Z"/>
</mask>
<path d="M134.066 135.739C151.683 134.984 170.432 133.852 190.314 132.342V85.153C190.314 59.4823 193.838 39.4744 200.885 25.129C208.938 8.77026 225.549 0.590899 250.716 0.590899C267.075 0.590899 279.532 5.37268 288.089 14.9362C296.898 24.2481 301.302 36.3284 301.302 51.1771C301.302 82.3846 289.977 105.161 267.326 119.506V262.582H291.487V268.622H166.154V262.582H190.314V139.892C177.479 140.898 168.167 141.528 162.379 141.779L134.066 142.912V195.008C134.066 220.93 128.655 240.938 117.833 255.032C107.262 268.874 88.7644 275.795 62.3388 275.795C42.4566 275.795 27.1046 269.881 16.2827 258.052C5.46072 246.224 0.0497578 230.872 0.0497578 211.996C0.0497578 193.121 4.95738 178.398 14.7726 167.827C24.5879 157.006 38.6815 149.204 57.0536 144.422V13.8037H29.118V7.76357H158.226V13.8037H134.066V135.739ZM43.0858 263.337C52.3977 263.337 57.0536 256.165 57.0536 241.819V151.972C24.0845 161.032 7.59994 180.789 7.59994 211.241C7.59994 225.838 10.8717 238.17 17.4152 248.237C24.2103 258.304 32.7672 263.337 43.0858 263.337ZM267.326 37.2093V109.691C284.943 96.6041 293.752 76.8478 293.752 50.4221C293.752 40.8586 291.864 32.9309 288.089 26.639C284.566 20.3472 280.791 17.2013 276.764 17.2013C272.737 17.2013 270.095 18.4597 268.836 20.9764C267.83 23.4931 267.326 28.9041 267.326 37.2093ZM427.414 0.590899C447.044 0.590899 464.536 4.86933 479.888 13.4262C495.491 21.7314 503.293 34.8184 503.293 52.6872C503.293 63.7608 499.77 72.5693 492.723 79.1128C485.928 85.4046 477.748 88.5505 468.185 88.5505C458.873 88.5505 451.071 85.7821 444.779 80.2453C438.487 74.7085 435.341 67.5359 435.341 58.7273C435.341 49.9188 437.984 42.7461 443.269 37.2093C448.554 31.6725 455.098 28.9041 462.9 28.9041C470.701 28.9041 476.993 31.1691 481.775 35.6993C486.557 39.9777 488.948 44.382 488.948 48.9121C488.948 53.6939 488.193 57.3431 486.683 59.8598C485.173 62.3766 484.418 64.2641 484.418 65.5225C484.418 67.7875 485.55 68.9201 487.815 68.9201C490.08 68.9201 491.968 67.2842 493.478 64.0125C495.24 60.7407 496.12 56.8398 496.12 52.3097C496.12 41.7394 491.968 32.5534 483.663 24.7515C475.609 16.9496 464.787 13.0487 451.197 13.0487C437.858 13.0487 426.155 18.208 416.088 28.5266C406.273 38.8452 401.366 51.4288 401.366 66.2775C401.366 81.1262 405.392 93.7098 413.446 104.028C421.499 114.347 432.321 119.506 445.912 119.506C449.687 119.506 457.74 116.738 470.072 111.201L473.092 117.619C447.925 129.951 430.686 142.031 421.374 153.86C412.313 165.437 407.783 180.159 407.783 198.028C407.783 215.645 411.181 230.62 417.976 242.952C425.023 255.032 436.726 261.072 453.084 261.072C469.695 261.072 483.033 256.165 493.1 246.349C503.167 236.534 508.201 224.706 508.201 210.864C508.201 203.817 506.565 200.293 503.293 200.293C500.776 200.293 499.518 201.426 499.518 203.691C499.518 204.194 499.77 205.075 500.273 206.333C500.776 207.592 501.028 209.605 501.028 212.374C501.028 219.169 498.511 224.454 493.478 228.229C488.444 231.752 482.404 233.514 475.357 233.514C468.311 233.514 462.019 230.746 456.482 225.209C451.197 219.672 448.554 212.499 448.554 203.691C448.554 194.882 451.449 187.584 457.237 181.795C463.277 175.755 471.205 172.735 481.02 172.735C490.835 172.735 499.015 176.259 505.558 183.305C512.102 190.101 515.373 199.035 515.373 210.109C515.373 229.236 507.068 244.965 490.458 257.297C474.099 269.629 450.316 275.795 419.109 275.795C387.901 275.795 364.244 268.371 348.137 253.522C332.281 238.673 324.354 221.56 324.354 202.181C324.354 182.802 331.401 166.695 345.494 153.86C359.588 141.024 379.848 132.719 406.273 128.944L405.141 125.546C381.483 124.791 363.489 118.751 351.157 107.426C338.825 95.8491 332.659 82.5104 332.659 67.41C332.659 47.7796 341.593 31.7983 359.462 19.4664C377.583 6.88272 400.233 0.590899 427.414 0.590899ZM625.288 13.8037V264.847C627.804 265.099 637.368 266.609 653.978 269.377C670.589 272.146 685.563 273.53 698.902 273.53C712.241 273.53 723.44 269.755 732.5 262.205C741.812 254.655 746.468 244.084 746.468 230.494C746.468 222.944 744.455 216.023 740.428 209.731C733.884 199.664 725.705 194.631 715.89 194.631C713.625 194.631 712.492 195.889 712.492 198.406C712.492 200.671 714.254 201.929 717.777 202.181C721.301 202.181 725.579 204.446 730.613 208.976C735.898 213.506 738.54 220.553 738.54 230.116C738.54 239.428 735.017 247.104 727.97 253.145C721.175 258.933 712.996 261.827 703.432 261.827C693.868 261.827 685.689 258.304 678.894 251.257C672.35 243.959 669.079 235.15 669.079 224.831C669.079 214.261 673.105 205.327 681.159 198.028C689.212 190.478 699.405 186.703 711.737 186.703C724.321 186.703 734.388 190.981 741.938 199.538C749.74 208.095 753.641 218.917 753.641 232.004C753.641 244.839 748.859 256.165 739.295 265.98C729.732 275.795 715.135 280.703 695.504 280.703C683.172 280.703 665.429 278.689 642.275 274.663C619.373 270.636 595.213 268.622 569.794 268.622H524.115V262.582H548.276V13.8037H524.115V7.76357H656.998V13.8037H625.288ZM860.493 13.8037V264.847C863.01 265.099 872.574 266.609 889.184 269.377C905.795 272.146 920.769 273.53 934.108 273.53C947.446 273.53 958.646 269.755 967.706 262.205C977.018 254.655 981.674 244.084 981.674 230.494C981.674 222.944 979.661 216.023 975.634 209.731C969.09 199.664 960.911 194.631 951.096 194.631C948.831 194.631 947.698 195.889 947.698 198.406C947.698 200.671 949.46 201.929 952.983 202.181C956.507 202.181 960.785 204.446 965.819 208.976C971.104 213.506 973.746 220.553 973.746 230.116C973.746 239.428 970.223 247.104 963.176 253.145C956.381 258.933 948.201 261.827 938.638 261.827C929.074 261.827 920.895 258.304 914.1 251.257C907.556 243.959 904.285 235.15 904.285 224.831C904.285 214.261 908.311 205.327 916.365 198.028C924.418 190.478 934.611 186.703 946.943 186.703C959.527 186.703 969.594 190.981 977.144 199.538C984.946 208.095 988.847 218.917 988.847 232.004C988.847 244.839 984.065 256.165 974.501 265.98C964.938 275.795 950.341 280.703 930.71 280.703C918.378 280.703 900.635 278.689 877.481 274.663C854.579 270.636 830.419 268.622 805 268.622H759.321V262.582H783.482V13.8037H759.321V7.76357H892.204V13.8037H860.493ZM1185.55 110.824C1197.12 110.824 1207.69 107.048 1217.26 99.4983C1226.82 91.9481 1233.36 79.742 1236.89 62.8799C1248.72 85.0271 1254.63 109.817 1254.63 137.249C1254.63 165.94 1248.09 191.736 1235 214.639C1220.65 240.058 1200.02 257.675 1173.09 267.49C1158.49 273.027 1142.51 275.795 1125.15 275.795C1107.78 275.795 1091.8 273.153 1077.2 267.867C1062.6 262.331 1050.27 255.158 1040.21 246.349C1030.39 237.289 1022.09 226.719 1015.29 214.639C1002.2 191.736 995.659 165.94 995.659 137.249C995.659 96.4782 1008.24 63.5091 1033.41 38.3418C1058.58 13.1745 1095.2 0.590899 1143.27 0.590899C1165.66 0.590899 1184.67 5.87603 1200.27 16.4463C1216.12 26.7649 1224.05 40.2294 1224.05 56.8398C1224.05 67.41 1220.28 76.7219 1212.73 84.7755C1205.18 92.829 1195.99 96.8558 1185.17 96.8558C1174.35 96.8558 1165.29 93.4582 1157.99 86.663C1150.69 79.6162 1147.04 71.311 1147.04 61.7474C1147.04 51.9322 1149.93 43.627 1155.72 36.8318C1161.76 30.0366 1169.69 26.639 1179.51 26.639C1189.57 26.639 1197.5 31.0433 1203.29 39.8519C1204.55 42.1169 1206.06 43.2495 1207.82 43.2495C1210.34 43.2495 1211.59 42.2428 1211.59 40.2294C1211.59 38.216 1210.59 35.9509 1208.57 33.4342C1204.04 26.8907 1196.62 21.2281 1186.3 16.4463C1175.98 11.4128 1163.02 8.89611 1147.42 8.89611C1131.81 8.89611 1119.1 12.2937 1109.29 19.0889C1089.41 32.6792 1079.47 72.066 1079.47 137.249C1079.47 202.181 1086.26 242.323 1099.85 257.675C1106.14 264.973 1114.57 268.622 1125.15 268.622C1135.72 268.622 1144.15 264.973 1150.44 257.675C1164.03 242.323 1170.82 202.181 1170.82 137.249C1170.82 123.407 1170.7 113.844 1170.45 108.559C1176.49 110.069 1181.52 110.824 1185.55 110.824ZM1364.9 254.655C1364.9 237.289 1358.1 224.454 1344.51 216.149C1340.49 213.884 1337.34 212.751 1335.08 212.751C1333.06 212.751 1332.06 213.758 1332.06 215.771C1332.06 217.785 1333.44 219.295 1336.21 220.301C1346.78 224.831 1352.06 233.262 1352.06 245.594C1352.06 254.655 1348.79 261.953 1342.25 267.49C1335.96 273.027 1328.03 275.795 1318.47 275.795C1309.15 275.795 1301.23 272.523 1294.68 265.98C1288.39 259.185 1285.24 250.754 1285.24 240.687C1285.24 230.62 1288.77 222.063 1295.81 215.016C1303.11 207.718 1312.68 204.068 1324.51 204.068C1336.33 204.068 1347.16 208.473 1356.97 217.281C1366.79 225.838 1371.69 238.422 1371.69 255.032C1371.69 286.24 1354.45 310.023 1319.98 326.381L1316.96 320.341C1348.92 305.241 1364.9 283.345 1364.9 254.655Z" fill="#FDE7D5"/>
<path d="M134.066 135.739H132.066V137.827L134.151 137.737L134.066 135.739ZM190.314 132.342L190.466 134.336L192.314 134.195V132.342H190.314ZM200.885 25.129L199.09 24.2456L199.09 24.2472L200.885 25.129ZM288.089 14.9362L286.599 16.2698L286.617 16.2905L286.636 16.3106L288.089 14.9362ZM267.326 119.506L266.256 117.817L265.326 118.406V119.506H267.326ZM267.326 262.582H265.326V264.582H267.326V262.582ZM291.487 262.582H293.487V260.582H291.487V262.582ZM291.487 268.622V270.622H293.487V268.622H291.487ZM166.154 268.622H164.154V270.622H166.154V268.622ZM166.154 262.582V260.582H164.154V262.582H166.154ZM190.314 262.582V264.582H192.314V262.582H190.314ZM190.314 139.892H192.314V137.729L190.158 137.898L190.314 139.892ZM162.379 141.779L162.459 143.778L162.466 143.777L162.379 141.779ZM134.066 142.912L133.986 140.913L132.066 140.99V142.912H134.066ZM117.833 255.032L116.246 253.814L116.243 253.818L117.833 255.032ZM16.2827 258.052L14.807 259.402L16.2827 258.052ZM14.7726 167.827L16.2382 169.188L16.2462 169.18L16.2541 169.171L14.7726 167.827ZM57.0536 144.422L57.5574 146.357L59.0536 145.968V144.422H57.0536ZM57.0536 13.8037H59.0536V11.8037H57.0536V13.8037ZM29.118 13.8037H27.118V15.8037H29.118V13.8037ZM29.118 7.76357V5.76357H27.118V7.76357H29.118ZM158.226 7.76357H160.226V5.76357H158.226V7.76357ZM158.226 13.8037V15.8037H160.226V13.8037H158.226ZM134.066 13.8037V11.8037H132.066V13.8037H134.066ZM57.0536 151.972H59.0536V149.348L56.5237 150.044L57.0536 151.972ZM17.4152 248.237L15.7383 249.327L15.7478 249.341L15.7575 249.356L17.4152 248.237ZM267.326 109.691H265.326V113.668L268.519 111.297L267.326 109.691ZM288.089 26.639L286.344 27.6162L286.359 27.6424L286.374 27.668L288.089 26.639ZM268.836 20.9764L267.047 20.082L267.01 20.1564L266.979 20.2336L268.836 20.9764ZM134.151 137.737C151.793 136.981 170.565 135.847 190.466 134.336L190.163 130.347C170.3 131.856 151.572 132.987 133.98 133.741L134.151 137.737ZM192.314 132.342V85.153H188.314V132.342H192.314ZM192.314 85.153C192.314 59.6232 195.825 39.9646 202.68 26.0108L199.09 24.2472C191.85 38.9841 188.314 59.3415 188.314 85.153H192.314ZM202.679 26.0124C210.27 10.5938 225.975 2.5909 250.716 2.5909V-1.4091C225.122 -1.4091 207.607 6.9467 199.09 24.2456L202.679 26.0124ZM250.716 2.5909C266.673 2.5909 278.52 7.24062 286.599 16.2698L289.58 13.6027C280.545 3.50474 267.477 -1.4091 250.716 -1.4091V2.5909ZM286.636 16.3106C295.038 25.1925 299.302 36.7528 299.302 51.1771H303.302C303.302 35.9041 298.758 23.3038 289.542 13.5618L286.636 16.3106ZM299.302 51.1771C299.302 81.8309 288.225 103.903 266.256 117.817L268.396 121.196C291.729 106.419 303.302 82.9383 303.302 51.1771H299.302ZM265.326 119.506V262.582H269.326V119.506H265.326ZM267.326 264.582H291.487V260.582H267.326V264.582ZM289.487 262.582V268.622H293.487V262.582H289.487ZM291.487 266.622H166.154V270.622H291.487V266.622ZM168.154 268.622V262.582H164.154V268.622H168.154ZM166.154 264.582H190.314V260.582H166.154V264.582ZM192.314 262.582V139.892H188.314V262.582H192.314ZM190.158 137.898C177.325 138.904 168.043 139.531 162.292 139.781L162.466 143.777C168.292 143.524 177.633 142.893 190.471 141.886L190.158 137.898ZM162.299 139.781L133.986 140.913L134.145 144.91L162.459 143.778L162.299 139.781ZM132.066 142.912V195.008H136.066V142.912H132.066ZM132.066 195.008C132.066 220.685 126.702 240.198 116.246 253.814L119.419 256.25C130.608 241.679 136.066 221.176 136.066 195.008H132.066ZM116.243 253.818C106.215 266.95 88.4726 273.795 62.3388 273.795V277.795C89.0562 277.795 108.31 270.798 119.422 256.246L116.243 253.818ZM62.3388 273.795C42.8731 273.795 28.1135 268.021 17.7583 256.702L14.807 259.402C26.0956 271.741 42.0401 277.795 62.3388 277.795V273.795ZM17.7583 256.702C7.33223 245.306 2.04976 230.466 2.04976 211.996H-1.95024C-1.95024 231.277 3.58922 247.141 14.807 259.402L17.7583 256.702ZM2.04976 211.996C2.04976 193.465 6.86183 179.286 16.2382 169.188L13.307 166.467C3.05293 177.509 -1.95024 192.776 -1.95024 211.996H2.04976ZM16.2541 169.171C25.7401 158.712 39.4506 151.07 57.5574 146.357L56.5499 142.486C37.9125 147.337 23.4356 155.299 13.2912 166.484L16.2541 169.171ZM59.0536 144.422V13.8037H55.0536V144.422H59.0536ZM57.0536 11.8037H29.118V15.8037H57.0536V11.8037ZM31.118 13.8037V7.76357H27.118V13.8037H31.118ZM29.118 9.76357H158.226V5.76357H29.118V9.76357ZM156.226 7.76357V13.8037H160.226V7.76357H156.226ZM158.226 11.8037H134.066V15.8037H158.226V11.8037ZM132.066 13.8037V135.739H136.066V13.8037H132.066ZM43.0858 265.337C48.3475 265.337 52.5051 263.259 55.2392 259.047C57.8765 254.984 59.0536 249.144 59.0536 241.819H55.0536C55.0536 248.84 53.9028 253.759 51.8841 256.869C49.9624 259.829 47.136 261.337 43.0858 261.337V265.337ZM59.0536 241.819V151.972H55.0536V241.819H59.0536ZM56.5237 150.044C39.7732 154.647 27.0049 162.024 18.4277 172.303C9.83242 182.604 5.59994 195.637 5.59994 211.241H9.59994C9.59994 196.393 13.6097 184.321 21.499 174.866C29.4064 165.389 41.3649 158.358 57.5836 153.901L56.5237 150.044ZM5.59994 211.241C5.59994 226.141 8.94232 238.872 15.7383 249.327L19.0921 247.147C12.8011 237.468 9.59994 225.535 9.59994 211.241H5.59994ZM15.7575 249.356C22.8486 259.861 31.9775 265.337 43.0858 265.337V261.337C33.557 261.337 25.5721 256.747 19.0729 247.118L15.7575 249.356ZM265.326 37.2093V109.691H269.326V37.2093H265.326ZM268.519 111.297C286.75 97.7533 295.752 77.3352 295.752 50.4221H291.752C291.752 76.3603 283.136 95.4549 266.134 108.086L268.519 111.297ZM295.752 50.4221C295.752 40.6036 293.814 32.2935 289.804 25.61L286.374 27.668C289.914 33.5682 291.752 41.1135 291.752 50.4221H295.752ZM289.834 25.6618C286.239 19.2424 281.95 15.2013 276.764 15.2013V19.2013C279.632 19.2013 282.892 21.452 286.344 27.6162L289.834 25.6618ZM276.764 15.2013C272.351 15.2013 268.784 16.6092 267.047 20.082L270.625 21.8708C271.406 20.3101 273.123 19.2013 276.764 19.2013V15.2013ZM266.979 20.2336C266.364 21.7712 265.968 23.9916 265.712 26.7369C265.453 29.5271 265.326 33.0234 265.326 37.2093H269.326C269.326 33.0899 269.451 29.7282 269.695 27.1074C269.943 24.4417 270.302 22.6983 270.693 21.7192L266.979 20.2336ZM479.888 13.4262L478.914 15.1732L478.931 15.1826L478.948 15.1917L479.888 13.4262ZM492.723 79.1128L494.082 80.5803L494.084 80.5784L492.723 79.1128ZM444.779 80.2453L443.458 81.7468L444.779 80.2453ZM481.775 35.6993L480.4 37.1512L480.42 37.1707L480.441 37.1897L481.775 35.6993ZM493.478 64.0125L491.717 63.0643L491.688 63.1185L491.662 63.1743L493.478 64.0125ZM483.663 24.7515L482.271 26.188L482.282 26.1987L482.293 26.2092L483.663 24.7515ZM416.089 28.5266L414.657 27.1299L414.648 27.139L414.639 27.1482L416.089 28.5266ZM470.072 111.201L471.882 110.35L471.045 108.572L469.253 109.377L470.072 111.201ZM473.092 117.619L473.972 119.415L475.74 118.548L474.902 116.767L473.092 117.619ZM421.374 153.86L419.802 152.623L419.799 152.627L421.374 153.86ZM417.976 242.952L416.224 243.917L416.236 243.938L416.248 243.96L417.976 242.952ZM493.1 246.349L494.497 247.781L493.1 246.349ZM500.273 206.333L502.13 205.591V205.591L500.273 206.333ZM493.478 228.229L494.625 229.867L494.652 229.849L494.678 229.829L493.478 228.229ZM456.482 225.209L455.035 226.59L455.051 226.607L455.068 226.623L456.482 225.209ZM457.237 181.795L455.823 180.381L457.237 181.795ZM505.558 183.305L504.093 184.666L504.105 184.68L504.118 184.693L505.558 183.305ZM490.458 257.297L489.266 255.691L489.26 255.696L489.254 255.7L490.458 257.297ZM348.137 253.522L346.77 254.982L346.775 254.987L346.781 254.993L348.137 253.522ZM345.494 153.86L346.841 155.338L345.494 153.86ZM406.273 128.944L406.556 130.924L408.928 130.585L408.171 128.312L406.273 128.944ZM405.141 125.546L407.038 124.914L406.597 123.592L405.205 123.547L405.141 125.546ZM351.157 107.426L349.788 108.884L349.796 108.892L349.804 108.899L351.157 107.426ZM359.462 19.4664L360.598 21.1124L360.603 21.1091L359.462 19.4664ZM427.414 2.5909C446.744 2.5909 463.893 6.80095 478.914 15.1732L480.861 11.6792C465.178 2.93772 447.344 -1.4091 427.414 -1.4091V2.5909ZM478.948 15.1917C486.48 19.2007 492.038 24.3118 495.724 30.4945C499.41 36.6783 501.293 44.0504 501.293 52.6872H505.293C505.293 43.4552 503.275 35.3494 499.16 28.4462C495.044 21.5419 488.899 15.9569 480.827 11.6607L478.948 15.1917ZM501.293 52.6872C501.293 63.2971 497.938 71.5408 491.362 77.6472L494.084 80.5784C501.601 73.5979 505.293 64.2245 505.293 52.6872H501.293ZM491.364 77.6453C484.952 83.5826 477.263 86.5505 468.185 86.5505V90.5505C478.234 90.5505 486.904 87.2266 494.082 80.5803L491.364 77.6453ZM468.185 86.5505C459.301 86.5505 451.986 83.923 446.1 78.7439L443.458 81.7468C450.156 87.6413 458.445 90.5505 468.185 90.5505V86.5505ZM446.1 78.7439C440.264 73.6083 437.341 66.9944 437.341 58.7273H433.341C433.341 68.0773 436.71 75.8088 443.458 81.7468L446.1 78.7439ZM437.341 58.7273C437.341 50.3496 439.84 43.6987 444.716 38.5902L441.822 35.8283C436.128 41.7935 433.341 49.4879 433.341 58.7273H437.341ZM444.716 38.5902C449.615 33.4573 455.632 30.9041 462.9 30.9041V26.9041C454.563 26.9041 447.493 29.8876 441.822 35.8283L444.716 38.5902ZM462.9 30.9041C470.29 30.9041 476.056 33.0366 480.4 37.1512L483.151 34.2473C477.93 29.3017 471.113 26.9041 462.9 26.9041V30.9041ZM480.441 37.1897C484.981 41.2513 486.948 45.1561 486.948 48.9121H490.948C490.948 43.6079 488.133 38.7041 483.109 34.2088L480.441 37.1897ZM486.948 48.9121C486.948 53.5363 486.208 56.7631 484.968 58.8308L488.398 60.8888C490.177 57.9231 490.948 53.8515 490.948 48.9121H486.948ZM484.968 58.8308C484.18 60.1443 483.557 61.3446 483.127 62.4203C482.706 63.4727 482.418 64.5304 482.418 65.5225H486.418C486.418 65.2562 486.507 64.741 486.841 63.9058C487.166 63.0939 487.676 62.0921 488.398 60.8888L484.968 58.8308ZM482.418 65.5225C482.418 66.9633 482.779 68.4113 483.853 69.4849C484.926 70.5585 486.374 70.9201 487.815 70.9201V66.9201C486.991 66.9201 486.74 66.7154 486.681 66.6564C486.622 66.5975 486.418 66.3467 486.418 65.5225H482.418ZM487.815 70.9201C491.266 70.9201 493.67 68.3685 495.294 64.8506L491.662 63.1743C490.266 66.1999 488.895 66.9201 487.815 66.9201V70.9201ZM495.239 64.9607C497.188 61.3402 498.12 57.0989 498.12 52.3097H494.12C494.12 56.5806 493.291 60.1412 491.717 63.0643L495.239 64.9607ZM498.12 52.3097C498.12 41.141 493.705 31.4408 485.032 23.2938L482.293 26.2092C490.231 33.6659 494.12 42.3378 494.12 52.3097H498.12ZM485.054 23.315C476.551 15.0778 465.19 11.0487 451.197 11.0487V15.0487C464.385 15.0487 474.667 18.8215 482.271 26.188L485.054 23.315ZM451.197 11.0487C437.273 11.0487 425.067 16.4601 414.657 27.1299L417.52 29.9232C427.244 19.9559 438.444 15.0487 451.197 15.0487V11.0487ZM414.639 27.1482C404.454 37.8557 399.366 50.9399 399.366 66.2775H403.366C403.366 51.9177 408.092 39.8346 417.538 29.905L414.639 27.1482ZM399.366 66.2775C399.366 81.5091 403.505 94.5422 411.869 105.259L415.023 102.798C407.28 92.8774 403.366 80.7433 403.366 66.2775H399.366ZM411.869 105.259C420.318 116.084 431.733 121.506 445.912 121.506V117.506C432.91 117.506 422.681 112.61 415.023 102.798L411.869 105.259ZM445.912 121.506C448.161 121.506 451.393 120.71 455.433 119.321C459.541 117.91 464.698 115.806 470.891 113.026L469.253 109.377C463.114 112.133 458.079 114.182 454.133 115.539C450.119 116.918 447.438 117.506 445.912 117.506V121.506ZM468.263 112.053L471.283 118.47L474.902 116.767L471.882 110.35L468.263 112.053ZM472.212 115.823C446.969 128.192 429.398 140.433 419.802 152.623L422.945 155.097C431.973 143.629 448.881 131.709 473.972 119.415L472.212 115.823ZM419.799 152.627C410.408 164.627 405.783 179.812 405.783 198.028H409.783C409.783 180.507 414.219 166.247 422.949 155.092L419.799 152.627ZM405.783 198.028C405.783 215.899 409.23 231.224 416.224 243.917L419.728 241.987C413.131 230.016 409.783 215.391 409.783 198.028H405.783ZM416.248 243.96C423.721 256.769 436.158 263.072 453.084 263.072V259.072C437.294 259.072 426.325 253.295 419.704 241.944L416.248 243.96ZM453.084 263.072C470.115 263.072 483.989 258.026 494.497 247.781L491.704 244.917C482.078 254.303 469.275 259.072 453.084 259.072V263.072ZM494.497 247.781C504.943 237.596 510.201 225.254 510.201 210.864H506.201C506.201 224.157 501.392 235.472 491.704 244.917L494.497 247.781ZM510.201 210.864C510.201 207.248 509.791 204.254 508.788 202.094C508.274 200.988 507.569 200.02 506.607 199.329C505.625 198.624 504.493 198.293 503.293 198.293V202.293C503.729 202.293 504.029 202.403 504.274 202.579C504.539 202.769 504.855 203.122 505.16 203.778C505.793 205.141 506.201 207.432 506.201 210.864H510.201ZM503.293 198.293C501.775 198.293 500.264 198.63 499.124 199.656C497.944 200.718 497.518 202.192 497.518 203.691H501.518C501.518 202.924 501.721 202.7 501.8 202.629C501.918 202.523 502.294 202.293 503.293 202.293V198.293ZM497.518 203.691C497.518 204.222 497.641 204.78 497.784 205.278C497.935 205.807 498.15 206.411 498.416 207.076L502.13 205.591C501.893 204.998 501.73 204.532 501.63 204.18C501.521 203.797 501.518 203.663 501.518 203.691H497.518ZM498.416 207.076C498.77 207.961 499.028 209.65 499.028 212.374H503.028C503.028 209.56 502.783 207.223 502.13 205.591L498.416 207.076ZM499.028 212.374C499.028 218.598 496.763 223.265 492.278 226.629L494.678 229.829C500.26 225.642 503.028 219.74 503.028 212.374H499.028ZM492.331 226.59C487.681 229.845 482.056 231.514 475.357 231.514V235.514C482.752 235.514 489.207 233.66 494.625 229.867L492.331 226.59ZM475.357 231.514C468.902 231.514 463.104 229.002 457.896 223.795L455.068 226.623C460.934 232.489 467.719 235.514 475.357 235.514V231.514ZM457.929 223.828C453.052 218.719 450.554 212.069 450.554 203.691H446.554C446.554 212.93 449.341 220.625 455.035 226.59L457.929 223.828ZM450.554 203.691C450.554 195.368 453.268 188.593 458.651 183.21L455.823 180.381C449.629 186.575 446.554 194.396 446.554 203.691H450.554ZM458.651 183.21C464.26 177.601 471.65 174.735 481.02 174.735V170.735C470.76 170.735 462.295 173.909 455.823 180.381L458.651 183.21ZM481.02 174.735C490.292 174.735 497.936 178.036 504.093 184.666L507.024 181.944C500.093 174.481 491.378 170.735 481.02 170.735V174.735ZM504.118 184.693C510.24 191.051 513.373 199.456 513.373 210.109H517.373C517.373 198.614 513.963 189.15 506.999 181.918L504.118 184.693ZM513.373 210.109C513.373 228.545 505.416 243.701 489.266 255.691L491.65 258.903C508.72 246.229 517.373 229.926 517.373 210.109H513.373ZM489.254 255.7C473.381 267.665 450.096 273.795 419.109 273.795V277.795C450.536 277.795 474.817 271.593 491.662 258.894L489.254 255.7ZM419.109 273.795C388.191 273.795 365.099 266.439 349.492 252.052L346.781 254.993C363.389 270.303 387.611 277.795 419.109 277.795V273.795ZM349.504 252.062C333.998 237.541 326.354 220.937 326.354 202.181H322.354C322.354 222.183 330.565 239.806 346.77 254.982L349.504 252.062ZM326.354 202.181C326.354 183.354 333.171 167.788 346.841 155.338L344.148 152.381C329.63 165.602 322.354 182.25 322.354 202.181H326.354ZM346.841 155.338C360.541 142.861 380.374 134.664 406.556 130.924L405.99 126.964C379.321 130.774 358.635 139.188 344.148 152.381L346.841 155.338ZM408.171 128.312L407.038 124.914L403.243 126.179L404.376 129.576L408.171 128.312ZM405.205 123.547C381.83 122.801 364.367 116.842 352.51 105.953L349.804 108.899C362.611 120.66 381.137 126.781 405.077 127.545L405.205 123.547ZM352.526 105.968C340.543 94.7188 334.659 81.8888 334.659 67.41H330.659C330.659 83.132 337.107 96.9793 349.788 108.884L352.526 105.968ZM334.659 67.41C334.659 48.5144 343.203 33.1173 360.598 21.1124L358.326 17.8203C339.983 30.4793 330.659 47.0447 330.659 67.41H334.659ZM360.603 21.1091C378.318 8.80724 400.545 2.5909 427.414 2.5909V-1.4091C399.921 -1.4091 376.848 4.95821 358.321 17.8236L360.603 21.1091ZM625.288 13.8037V11.8037H623.288V13.8037H625.288ZM625.288 264.847H623.288V266.657L625.089 266.837L625.288 264.847ZM653.978 269.377L653.649 271.35L653.978 269.377ZM732.5 262.205L731.241 260.651L731.23 260.66L731.22 260.668L732.5 262.205ZM740.428 209.731L742.112 208.653L742.105 208.641L740.428 209.731ZM717.777 202.181L717.635 204.176L717.706 204.181H717.777V202.181ZM730.613 208.976L729.275 210.463L729.293 210.479L729.311 210.494L730.613 208.976ZM727.97 253.145L729.267 254.667L729.272 254.663L727.97 253.145ZM678.894 251.257L677.405 252.592L677.429 252.619L677.454 252.645L678.894 251.257ZM681.159 198.028L682.502 199.51L682.514 199.499L682.527 199.487L681.159 198.028ZM741.938 199.538L740.438 200.861L740.449 200.874L740.46 200.886L741.938 199.538ZM642.276 274.663L641.929 276.632L641.933 276.633L642.276 274.663ZM524.115 268.622H522.115V270.622H524.115V268.622ZM524.115 262.582V260.582H522.115V262.582H524.115ZM548.276 262.582V264.582H550.276V262.582H548.276ZM548.276 13.8037H550.276V11.8037H548.276V13.8037ZM524.115 13.8037H522.115V15.8037H524.115V13.8037ZM524.115 7.76357V5.76357H522.115V7.76357H524.115ZM656.998 7.76357H658.998V5.76357H656.998V7.76357ZM656.998 13.8037V15.8037H658.998V13.8037H656.998ZM623.288 13.8037V264.847H627.288V13.8037H623.288ZM625.089 266.837C627.521 267.081 636.995 268.574 653.649 271.35L654.307 267.405C637.741 264.644 628.087 263.117 625.487 262.857L625.089 266.837ZM653.649 271.35C670.342 274.132 685.429 275.53 698.902 275.53V271.53C685.698 271.53 670.836 270.159 654.307 267.405L653.649 271.35ZM698.902 275.53C712.643 275.53 724.314 271.63 733.781 263.741L731.22 260.668C722.566 267.88 711.838 271.53 698.902 271.53V275.53ZM733.76 263.758C743.606 255.775 748.468 244.596 748.468 230.494H744.468C744.468 243.572 740.018 253.535 731.241 260.651L733.76 263.758ZM748.468 230.494C748.468 222.566 746.347 215.27 742.112 208.653L738.743 210.809C742.562 216.775 744.468 223.322 744.468 230.494H748.468ZM742.105 208.641C735.287 198.152 726.539 192.631 715.89 192.631V196.631C724.871 196.631 732.482 201.176 738.751 210.821L742.105 208.641ZM715.89 192.631C714.391 192.631 712.917 193.057 711.855 194.236C710.829 195.376 710.492 196.888 710.492 198.406H714.492C714.492 197.407 714.722 197.031 714.828 196.912C714.899 196.834 715.123 196.631 715.89 196.631V192.631ZM710.492 198.406C710.492 200.149 711.216 201.651 712.651 202.676C713.965 203.615 715.714 204.039 717.635 204.176L717.92 200.186C716.317 200.071 715.423 199.74 714.976 199.421C714.649 199.187 714.492 198.928 714.492 198.406H710.492ZM717.777 204.181C720.517 204.181 724.313 205.997 729.275 210.463L731.951 207.489C726.845 202.895 722.084 200.181 717.777 200.181V204.181ZM729.311 210.494C734.005 214.517 736.54 220.908 736.54 230.117H740.54C740.54 220.198 737.791 212.495 731.914 207.457L729.311 210.494ZM736.54 230.117C736.54 238.847 733.27 245.967 726.669 251.626L729.272 254.663C736.763 248.242 740.54 240.01 740.54 230.117H736.54ZM726.673 251.622C720.267 257.079 712.557 259.827 703.432 259.827V263.827C713.434 263.827 722.083 260.787 729.267 254.667L726.673 251.622ZM703.432 259.827C694.426 259.827 686.762 256.535 680.334 249.869L677.454 252.645C684.616 260.073 693.311 263.827 703.432 263.827V259.827ZM680.383 249.922C674.187 243.011 671.079 234.686 671.079 224.831H667.079C667.079 235.614 670.514 244.906 677.405 252.592L680.383 249.922ZM671.079 224.831C671.079 214.844 674.853 206.442 682.502 199.51L679.816 196.546C671.357 204.212 667.079 213.679 667.079 224.831H671.079ZM682.527 199.487C690.165 192.326 699.849 188.703 711.737 188.703V184.703C698.962 184.703 688.26 188.63 679.791 196.569L682.527 199.487ZM711.737 188.703C723.813 188.703 733.309 192.782 740.438 200.861L743.438 198.215C735.466 189.181 724.829 184.703 711.737 184.703V188.703ZM740.46 200.886C747.882 209.026 751.641 219.346 751.641 232.004H755.641C755.641 218.488 751.598 207.165 743.416 198.191L740.46 200.886ZM751.641 232.004C751.641 244.28 747.09 255.114 737.863 264.584L740.728 267.376C750.628 257.215 755.641 245.398 755.641 232.004H751.641ZM737.863 264.584C728.813 273.872 714.831 278.703 695.504 278.703V282.703C715.439 282.703 730.65 277.718 740.728 267.376L737.863 264.584ZM695.504 278.703C683.348 278.703 665.741 276.714 642.618 272.692L641.933 276.633C665.118 280.665 682.997 282.703 695.504 282.703V278.703ZM642.622 272.693C619.595 268.644 595.318 266.622 569.794 266.622V270.622C595.107 270.622 619.151 272.627 641.929 276.632L642.622 272.693ZM569.794 266.622H524.115V270.622H569.794V266.622ZM526.115 268.622V262.582H522.115V268.622H526.115ZM524.115 264.582H548.276V260.582H524.115V264.582ZM550.276 262.582V13.8037H546.276V262.582H550.276ZM548.276 11.8037H524.115V15.8037H548.276V11.8037ZM526.115 13.8037V7.76357H522.115V13.8037H526.115ZM524.115 9.76357H656.998V5.76357H524.115V9.76357ZM654.998 7.76357V13.8037H658.998V7.76357H654.998ZM656.998 11.8037H625.288V15.8037H656.998V11.8037ZM860.493 13.8037V11.8037H858.493V13.8037H860.493ZM860.493 264.847H858.493V266.657L860.294 266.837L860.493 264.847ZM889.184 269.377L888.855 271.35L889.184 269.377ZM967.706 262.205L966.446 260.651L966.436 260.66L966.426 260.668L967.706 262.205ZM975.634 209.731L977.318 208.653L977.311 208.641L975.634 209.731ZM952.983 202.181L952.841 204.176L952.912 204.181H952.983V202.181ZM965.819 208.976L964.481 210.463L964.499 210.479L964.517 210.494L965.819 208.976ZM963.176 253.145L964.473 254.667L964.478 254.663L963.176 253.145ZM914.1 251.257L912.611 252.592L912.635 252.619L912.66 252.645L914.1 251.257ZM916.365 198.028L917.708 199.51L917.72 199.499L917.733 199.487L916.365 198.028ZM977.144 199.538L975.644 200.861L975.655 200.874L975.666 200.886L977.144 199.538ZM877.481 274.663L877.135 276.632L877.139 276.633L877.481 274.663ZM759.321 268.622H757.321V270.622H759.321V268.622ZM759.321 262.582V260.582H757.321V262.582H759.321ZM783.482 262.582V264.582H785.482V262.582H783.482ZM783.482 13.8037H785.482V11.8037H783.482V13.8037ZM759.321 13.8037H757.321V15.8037H759.321V13.8037ZM759.321 7.76357V5.76357H757.321V7.76357H759.321ZM892.204 7.76357H894.204V5.76357H892.204V7.76357ZM892.204 13.8037V15.8037H894.204V13.8037H892.204ZM858.493 13.8037V264.847H862.493V13.8037H858.493ZM860.294 266.837C862.727 267.081 872.201 268.574 888.855 271.35L889.513 267.405C872.947 264.644 863.293 263.117 860.693 262.857L860.294 266.837ZM888.855 271.35C905.548 274.132 920.635 275.53 934.108 275.53V271.53C920.903 271.53 906.042 270.159 889.513 267.405L888.855 271.35ZM934.108 275.53C947.849 275.53 959.52 271.63 968.986 263.741L966.426 260.668C957.772 267.88 947.044 271.53 934.108 271.53V275.53ZM968.966 263.758C978.812 255.775 983.674 244.596 983.674 230.494H979.674C979.674 243.572 975.224 253.535 966.446 260.651L968.966 263.758ZM983.674 230.494C983.674 222.566 981.553 215.27 977.318 208.653L973.949 210.809C977.768 216.775 979.674 223.322 979.674 230.494H983.674ZM977.311 208.641C970.493 198.152 961.745 192.631 951.096 192.631V196.631C960.077 196.631 967.688 201.176 973.957 210.821L977.311 208.641ZM951.096 192.631C949.597 192.631 948.123 193.057 947.061 194.236C946.035 195.376 945.698 196.888 945.698 198.406H949.698C949.698 197.407 949.927 197.031 950.034 196.912C950.105 196.834 950.329 196.631 951.096 196.631V192.631ZM945.698 198.406C945.698 200.149 946.422 201.651 947.857 202.676C949.171 203.615 950.92 204.039 952.841 204.176L953.126 200.186C951.523 200.071 950.629 199.74 950.182 199.421C949.855 199.187 949.698 198.928 949.698 198.406H945.698ZM952.983 204.181C955.723 204.181 959.519 205.997 964.481 210.463L967.156 207.489C962.051 202.895 957.29 200.181 952.983 200.181V204.181ZM964.517 210.494C969.21 214.517 971.746 220.908 971.746 230.117H975.746C975.746 220.198 972.997 212.495 967.12 207.457L964.517 210.494ZM971.746 230.117C971.746 238.847 968.476 245.967 961.874 251.626L964.478 254.663C971.969 248.242 975.746 240.01 975.746 230.117H971.746ZM961.879 251.622C955.473 257.079 947.763 259.827 938.638 259.827V263.827C948.64 263.827 957.289 260.787 964.473 254.667L961.879 251.622ZM938.638 259.827C929.632 259.827 921.968 256.535 915.539 249.869L912.66 252.645C919.822 260.073 928.517 263.827 938.638 263.827V259.827ZM915.589 249.922C909.393 243.011 906.285 234.686 906.285 224.831H902.285C902.285 235.614 905.72 244.906 912.611 252.592L915.589 249.922ZM906.285 224.831C906.285 214.844 910.059 206.442 917.708 199.51L915.022 196.546C906.563 204.212 902.285 213.679 902.285 224.831H906.285ZM917.733 199.487C925.371 192.326 935.055 188.703 946.943 188.703V184.703C934.167 184.703 923.466 188.63 914.997 196.569L917.733 199.487ZM946.943 188.703C959.019 188.703 968.515 192.782 975.644 200.861L978.643 198.215C970.672 189.181 960.034 184.703 946.943 184.703V188.703ZM975.666 200.886C983.088 209.026 986.847 219.346 986.847 232.004H990.847C990.847 218.488 986.804 207.165 978.622 198.191L975.666 200.886ZM986.847 232.004C986.847 244.28 982.296 255.114 973.069 264.584L975.934 267.376C985.834 257.215 990.847 245.398 990.847 232.004H986.847ZM973.069 264.584C964.019 273.872 950.037 278.703 930.71 278.703V282.703C950.644 282.703 965.856 277.718 975.934 267.376L973.069 264.584ZM930.71 278.703C918.554 278.703 900.947 276.714 877.824 272.692L877.139 276.633C900.324 280.665 918.203 282.703 930.71 282.703V278.703ZM877.828 272.693C854.801 268.644 830.524 266.622 805 266.622V270.622C830.313 270.622 854.357 272.627 877.135 276.632L877.828 272.693ZM805 266.622H759.321V270.622H805V266.622ZM761.321 268.622V262.582H757.321V268.622H761.321ZM759.321 264.582H783.482V260.582H759.321V264.582ZM785.482 262.582V13.8037H781.482V262.582H785.482ZM783.482 11.8037H759.321V15.8037H783.482V11.8037ZM761.321 13.8037V7.76357H757.321V13.8037H761.321ZM759.321 9.76357H892.204V5.76357H759.321V9.76357ZM890.204 7.76357V13.8037H894.204V7.76357H890.204ZM892.204 11.8037H860.493V15.8037H892.204V11.8037ZM1217.26 99.4983L1216.02 97.9286L1217.26 99.4983ZM1236.89 62.8799L1238.65 61.9377L1236.06 57.0787L1234.93 62.4708L1236.89 62.8799ZM1235 214.639L1233.26 213.646L1233.26 213.656L1235 214.639ZM1173.09 267.49L1172.4 265.611L1172.39 265.615L1172.38 265.62L1173.09 267.49ZM1077.2 267.867L1076.49 269.737L1076.51 269.743L1076.52 269.748L1077.2 267.867ZM1040.21 246.349L1038.85 247.819L1038.87 247.837L1038.89 247.855L1040.21 246.349ZM1015.29 214.639L1017.03 213.658L1017.03 213.646L1015.29 214.639ZM1033.41 38.3418L1034.82 39.756V39.756L1033.41 38.3418ZM1200.27 16.4463L1199.15 18.1021L1199.16 18.1125L1199.18 18.1226L1200.27 16.4463ZM1212.73 84.7755L1214.19 86.1433L1212.73 84.7755ZM1157.99 86.663L1156.6 88.1018L1156.61 88.1144L1156.63 88.1268L1157.99 86.663ZM1155.72 36.8318L1154.23 35.5031L1154.21 35.5188L1154.2 35.5349L1155.72 36.8318ZM1203.29 39.8519L1205.04 38.8806L1205 38.8156L1204.96 38.7535L1203.29 39.8519ZM1208.57 33.4342L1206.93 34.5726L1206.97 34.6295L1207.01 34.6836L1208.57 33.4342ZM1186.3 16.4463L1185.42 18.2438L1185.44 18.2525L1185.46 18.2609L1186.3 16.4463ZM1109.29 19.0889L1110.42 20.74L1110.43 20.7332L1109.29 19.0889ZM1099.85 257.675L1101.37 256.369L1101.36 256.359L1101.35 256.349L1099.85 257.675ZM1150.44 257.675L1148.94 256.349L1148.93 256.359L1148.92 256.369L1150.44 257.675ZM1170.45 108.559L1170.93 106.618L1168.32 105.966L1168.45 108.654L1170.45 108.559ZM1185.55 112.824C1197.6 112.824 1208.6 108.881 1218.5 101.068L1216.02 97.9286C1206.79 105.216 1196.65 108.824 1185.55 108.824V112.824ZM1218.5 101.068C1228.55 93.1274 1235.27 80.423 1238.85 63.289L1234.93 62.4708C1231.46 79.061 1225.09 90.7689 1216.02 97.9286L1218.5 101.068ZM1235.12 63.8221C1246.78 85.6532 1252.63 110.114 1252.63 137.249H1256.63C1256.63 109.519 1250.65 84.4011 1238.65 61.9377L1235.12 63.8221ZM1252.63 137.249C1252.63 165.623 1246.16 191.072 1233.26 213.646L1236.74 215.631C1250.01 192.4 1256.63 166.257 1256.63 137.249H1252.63ZM1233.26 213.656C1219.14 238.668 1198.88 255.962 1172.4 265.611L1173.77 269.369C1201.16 259.387 1222.17 241.447 1236.74 215.622L1233.26 213.656ZM1172.38 265.62C1158.03 271.062 1142.3 273.795 1125.15 273.795V277.795C1142.73 277.795 1158.95 274.992 1173.8 269.36L1172.38 265.62ZM1125.15 273.795C1107.98 273.795 1092.24 271.184 1077.88 265.987L1076.52 269.748C1091.36 275.121 1107.57 277.795 1125.15 277.795V273.795ZM1077.91 265.997C1063.5 260.531 1051.38 253.472 1041.52 244.844L1038.89 247.855C1049.16 256.844 1061.71 264.13 1076.49 269.737L1077.91 265.997ZM1041.56 244.88C1031.91 235.967 1023.73 225.563 1017.03 213.658L1013.55 215.619C1020.44 227.875 1028.87 238.612 1038.85 247.819L1041.56 244.88ZM1017.03 213.646C1004.13 191.072 997.659 165.623 997.659 137.249H993.659C993.659 166.257 1000.28 192.4 1013.55 215.631L1017.03 213.646ZM997.659 137.249C997.659 96.9249 1010.09 64.4929 1034.82 39.756L1032 36.9276C1006.4 62.5253 993.659 96.0316 993.659 137.249H997.659ZM1034.82 39.756C1059.5 15.0803 1095.54 2.5909 1143.27 2.5909V-1.4091C1094.86 -1.4091 1057.66 11.2688 1032 36.9276L1034.82 39.756ZM1143.27 2.5909C1165.34 2.5909 1183.93 7.79569 1199.15 18.1021L1201.39 14.7904C1185.4 3.95637 1165.99 -1.4091 1143.27 -1.4091V2.5909ZM1199.18 18.1226C1214.56 28.1322 1222.05 41.0092 1222.05 56.8398H1226.05C1226.05 39.4495 1217.69 25.3975 1201.36 14.77L1199.18 18.1226ZM1222.05 56.8398C1222.05 66.8776 1218.49 75.7066 1211.27 83.4076L1214.19 86.1433C1222.07 77.7373 1226.05 67.9425 1226.05 56.8398H1222.05ZM1211.27 83.4076C1204.09 91.067 1195.43 94.8558 1185.17 94.8558V98.8558C1196.56 98.8558 1206.27 94.591 1214.19 86.1433L1211.27 83.4076ZM1185.17 94.8558C1174.81 94.8558 1166.25 91.619 1159.35 85.1992L1156.63 88.1268C1164.33 95.2973 1173.89 98.8558 1185.17 98.8558V94.8558ZM1159.38 85.2242C1152.44 78.5287 1149.04 70.7326 1149.04 61.7474H1145.04C1145.04 71.8893 1148.94 80.7037 1156.6 88.1018L1159.38 85.2242ZM1149.04 61.7474C1149.04 52.3567 1151.8 44.5252 1157.25 38.1287L1154.2 35.5349C1148.07 42.7287 1145.04 51.5076 1145.04 61.7474H1149.04ZM1157.22 38.1605C1162.85 31.8292 1170.21 28.639 1179.51 28.639V24.639C1169.17 24.639 1160.68 28.2441 1154.23 35.5031L1157.22 38.1605ZM1179.51 28.639C1188.86 28.639 1196.18 32.6727 1201.62 40.9502L1204.96 38.7535C1198.82 29.4139 1190.28 24.639 1179.51 24.639V28.639ZM1201.54 40.8232C1202.97 43.3932 1205.02 45.2495 1207.82 45.2495V41.2495C1207.1 41.2495 1206.13 40.8407 1205.04 38.8806L1201.54 40.8232ZM1207.82 45.2495C1209.29 45.2495 1210.77 44.9638 1211.9 44.0562C1213.12 43.0804 1213.59 41.6775 1213.59 40.2294H1209.59C1209.59 40.7947 1209.44 40.9018 1209.4 40.9327C1209.28 41.0318 1208.86 41.2495 1207.82 41.2495V45.2495ZM1213.59 40.2294C1213.59 37.5599 1212.27 34.8574 1210.14 32.1848L1207.01 34.6836C1208.9 37.0445 1209.59 38.8721 1209.59 40.2294H1213.59ZM1210.22 32.2958C1205.42 25.3599 1197.65 19.5026 1187.14 14.6317L1185.46 18.2609C1195.59 22.9536 1202.67 28.4215 1206.93 34.5726L1210.22 32.2958ZM1187.18 14.6487C1176.51 9.44313 1163.22 6.89611 1147.42 6.89611V10.8961C1162.82 10.8961 1175.46 13.3825 1185.42 18.2438L1187.18 14.6487ZM1147.42 6.89611C1131.53 6.89611 1118.39 10.3561 1108.15 17.4445L1110.43 20.7332C1119.82 14.2313 1132.1 10.8961 1147.42 10.8961V6.89611ZM1108.16 17.4377C1097.62 24.6435 1090 38.466 1084.98 58.3323C1079.96 78.2521 1077.47 104.579 1077.47 137.249H1081.47C1081.47 104.736 1083.95 78.7781 1088.86 59.3111C1093.79 39.7906 1101.08 27.1245 1110.42 20.74L1108.16 17.4377ZM1077.47 137.249C1077.47 169.769 1079.17 196.162 1082.59 216.388C1086 236.528 1091.17 250.882 1098.35 259L1101.35 256.349C1094.95 249.116 1089.92 235.722 1086.53 215.72C1083.16 195.805 1081.47 169.661 1081.47 137.249H1077.47ZM1098.34 258.981C1105.05 266.766 1114.06 270.622 1125.15 270.622V266.622C1115.09 266.622 1107.24 263.181 1101.37 256.369L1098.34 258.981ZM1125.15 270.622C1136.23 270.622 1145.24 266.766 1151.95 258.981L1148.92 256.369C1143.05 263.181 1135.2 266.622 1125.15 266.622V270.622ZM1151.94 259C1159.12 250.882 1164.29 236.528 1167.7 216.388C1171.12 196.162 1172.82 169.769 1172.82 137.249H1168.82C1168.82 169.661 1167.13 195.805 1163.76 215.72C1160.37 235.722 1155.34 249.116 1148.94 256.349L1151.94 259ZM1172.82 137.249C1172.82 123.41 1172.7 113.802 1172.44 108.463L1168.45 108.654C1168.7 113.885 1168.82 123.404 1168.82 137.249H1172.82ZM1169.96 110.499C1176.08 112.029 1181.29 112.824 1185.55 112.824V108.824C1181.75 108.824 1176.89 108.108 1170.93 106.618L1169.96 110.499ZM1344.51 216.149L1345.56 214.442L1345.53 214.423L1345.49 214.406L1344.51 216.149ZM1336.21 220.301L1337 218.463L1336.94 218.441L1336.89 218.422L1336.21 220.301ZM1342.25 267.49L1340.96 265.963L1340.94 265.976L1340.93 265.988L1342.25 267.49ZM1294.68 265.98L1293.21 267.339L1293.24 267.367L1293.27 267.394L1294.68 265.98ZM1295.81 215.016L1294.4 213.602L1295.81 215.016ZM1356.97 217.281L1355.64 218.77L1355.65 218.779L1355.66 218.789L1356.97 217.281ZM1319.98 326.381L1318.19 327.276L1319.06 329.028L1320.83 328.188L1319.98 326.381ZM1316.96 320.341L1316.1 318.533L1314.25 319.406L1315.17 321.236L1316.96 320.341ZM1366.9 254.655C1366.9 236.668 1359.8 223.148 1345.56 214.442L1343.47 217.855C1356.4 225.759 1362.9 237.91 1362.9 254.655H1366.9ZM1345.49 214.406C1341.42 212.113 1337.89 210.751 1335.08 210.751V214.751C1336.79 214.751 1339.55 215.654 1343.53 217.892L1345.49 214.406ZM1335.08 210.751C1333.76 210.751 1332.41 211.081 1331.4 212.092C1330.39 213.103 1330.06 214.456 1330.06 215.771H1334.06C1334.06 215.428 1334.1 215.21 1334.14 215.082C1334.18 214.964 1334.22 214.928 1334.22 214.92C1334.23 214.913 1334.27 214.877 1334.39 214.837C1334.51 214.795 1334.73 214.751 1335.08 214.751V210.751ZM1330.06 215.771C1330.06 217.288 1330.6 218.648 1331.62 219.765C1332.6 220.838 1333.96 221.613 1335.52 222.181L1336.89 218.422C1335.69 217.983 1334.97 217.499 1334.57 217.062C1334.21 216.669 1334.06 216.268 1334.06 215.771H1330.06ZM1335.42 222.14C1340.39 224.27 1344.01 227.265 1346.41 231.084C1348.81 234.913 1350.06 239.714 1350.06 245.594H1354.06C1354.06 239.142 1352.68 233.562 1349.79 228.96C1346.9 224.348 1342.6 220.863 1337 218.463L1335.42 222.14ZM1350.06 245.594C1350.06 254.105 1347.02 260.83 1340.96 265.963L1343.54 269.017C1350.56 263.076 1354.06 255.205 1354.06 245.594H1350.06ZM1340.93 265.988C1335.05 271.159 1327.62 273.795 1318.47 273.795V277.795C1328.44 277.795 1336.86 274.895 1343.57 268.991L1340.93 265.988ZM1318.47 273.795C1309.68 273.795 1302.26 270.731 1296.1 264.566L1293.27 267.394C1300.19 274.315 1308.63 277.795 1318.47 277.795V273.795ZM1296.15 264.621C1290.23 258.229 1287.24 250.298 1287.24 240.687H1283.24C1283.24 251.21 1286.55 260.14 1293.21 267.339L1296.15 264.621ZM1287.24 240.687C1287.24 231.144 1290.56 223.098 1297.23 216.43L1294.4 213.602C1286.97 221.028 1283.24 230.095 1283.24 240.687H1287.24ZM1297.23 216.43C1304.1 209.562 1313.12 206.068 1324.51 206.068V202.068C1312.23 202.068 1302.13 205.873 1294.4 213.602L1297.23 216.43ZM1324.51 206.068C1335.78 206.068 1346.14 210.25 1355.64 218.77L1358.31 215.793C1348.17 206.696 1336.88 202.068 1324.51 202.068V206.068ZM1355.66 218.789C1364.92 226.866 1369.69 238.829 1369.69 255.032H1373.69C1373.69 238.015 1368.65 224.81 1358.29 215.774L1355.66 218.789ZM1369.69 255.032C1369.69 270.242 1365.5 283.573 1357.15 295.101C1348.77 306.652 1336.14 316.497 1319.12 324.574L1320.83 328.188C1338.29 319.907 1351.52 309.681 1360.38 297.449C1369.27 285.194 1373.69 271.03 1373.69 255.032H1369.69ZM1321.76 325.487L1318.74 319.447L1315.17 321.236L1318.19 327.276L1321.76 325.487ZM1317.81 322.15C1334 314.499 1346.29 305.061 1354.53 293.773C1362.78 282.463 1366.9 269.397 1366.9 254.655H1362.9C1362.9 268.602 1359.02 280.83 1351.3 291.415C1343.55 302.023 1331.87 311.083 1316.1 318.533L1317.81 322.15Z" fill="#50322E" mask="url(#path-1-outside-1_1954_2326)"/>
</svg>
