<svg width="45" height="38" viewBox="0 0 45 38" fill="none" xmlns="http://www.w3.org/2000/svg">
<path d="M5.304 18.036C3.53333 18.036 2.264 18.5907 1.496 19.7C1.368 19.892 1.304 20.052 1.304 20.18C1.304 20.372 1.4 20.468 1.592 20.468C1.76267 20.468 1.92267 20.308 2.072 19.988C2.43467 19.476 2.936 19.22 3.576 19.22C4.23733 19.22 4.74933 19.4333 5.112 19.86C5.496 20.2867 5.688 20.8413 5.688 21.524C5.688 22.2067 5.44267 22.772 4.952 23.22C4.48267 23.668 3.864 23.892 3.096 23.892C2.328 23.892 1.69867 23.6147 1.208 23.06C0.717333 22.5053 0.472 21.7907 0.472 20.916C0.472 20.0413 0.888 19.2413 1.72 18.516C2.552 17.7907 3.736 17.428 5.272 17.428C6.06133 17.428 6.84 17.5453 7.608 17.78L10.872 8.372C11.1707 7.476 11.5013 6.85733 11.864 6.516C12.44 6.004 13.2187 5.748 14.2 5.748L21.976 27.7H23.192V28.212H15.256L14.552 26.26C12.7813 22.1427 10.5947 19.572 7.992 18.548L6.04 24.084C5.82667 24.66 5.72 25.204 5.72 25.716C5.72 27.0387 6.68 27.7 8.6 27.7H9.656V28.212H1.464V27.7C2.104 27.7 2.63733 27.636 3.064 27.508C3.49067 27.3587 3.85333 27.0813 4.152 26.676C4.45067 26.2707 4.67467 25.8973 4.824 25.556C4.97333 25.1933 5.18667 24.628 5.464 23.86L7.384 18.356C6.68 18.1427 5.98667 18.036 5.304 18.036ZM8.184 17.972C10.104 18.676 11.7573 20.1053 13.144 22.26L9.912 13.076L8.184 17.972Z" fill="#FDE7D5"/>
<path d="M39.512 7.188L40.216 7.124C40.856 7.124 41.3893 7.38 41.816 7.892C42.2427 8.38266 42.456 9.012 42.456 9.78C42.456 10.5267 42.1787 11.1773 41.624 11.732C41.0693 12.2867 40.3333 12.564 39.416 12.564C38.52 12.564 37.7627 12.244 37.144 11.604C36.5467 10.964 36.248 10.1853 36.248 9.268C36.248 8.35067 36.5893 7.56133 37.272 6.9C37.9547 6.21733 38.8507 5.876 39.96 5.876C41.624 5.876 42.8293 6.58 43.576 7.988C44.3227 9.37467 44.696 11.4227 44.696 14.132C44.696 17.4387 44.3653 20.1693 43.704 22.324C43.1067 24.2867 42.1787 25.812 40.92 26.9C39.448 28.18 37.56 28.82 35.256 28.82C32.248 28.82 30.0187 28.1587 28.568 26.836C27.3307 25.7053 26.5413 23.8493 26.2 21.268C26.072 20.18 26.008 18.868 26.008 17.332V6.612H23.96V6.1H34.584V6.612H32.536V17.108C32.536 20.5 32.76 22.8253 33.208 24.084C33.7627 25.62 34.4773 26.612 35.352 27.06C35.8853 27.3373 36.504 27.476 37.208 27.476C38.5093 27.476 39.6293 27.0813 40.568 26.292C41.5067 25.5027 42.2213 24.4253 42.712 23.06C43.608 20.4787 44.056 17.5027 44.056 14.132C44.056 9.03333 42.7653 6.484 40.184 6.484C39.544 6.484 39.224 6.60133 39.224 6.836C39.224 7.07067 39.32 7.188 39.512 7.188Z" fill="#FDE7D5"/>
</svg>
